<svg width="26px" height="26px" viewBox="0 0 48 48" xmlns="http://www.w3.org/2000/svg">
  <g id="l1" data-name="Layer 1">
    <g id="l2" data-name="Layer 2">
      <g>
        <path d="M42,12a2,2,0,0,1-2,2H8a2,2,0,0,1-2-2H6a2,2,0,0,1,2-2H40a2,2,0,0,1,2,2Z" fill="currentColor"/>
        <path d="M42,24a2,2,0,0,1-2,2H8a2,2,0,0,1-2-2H6a2,2,0,0,1,2-2H40a2,2,0,0,1,2,2Z" fill="currentColor"/>
        <path d="M42,36a2,2,0,0,1-2,2H8a2,2,0,0,1-2-2H6a2,2,0,0,1,2-2H40a2,2,0,0,1,2,2Z" fill="currentColor"/>
      </g>
    </g>
  </g>
</svg>