<svg xmlns="http://www.w3.org/2000/svg" width="728" height="412" viewBox="0 0 728 412"><rect width="100%" height="100%" fill="#644A40"/><path fill="#FFDFB5" d="M148.005 170.935h48.45v5.19q0 2.33-.48 3.76-.49 1.43-.97 2.4l-26.58 54.71q-.83 1.69-2.33 2.88t-4.03 1.19h-8.68l27.11-53.59q.93-1.65 1.82-3.03.9-1.39 2.02-2.65h-33.57q-1.11 0-1.94-.82-.82-.83-.82-1.94zm81.33 58.97h18q1.94 0 3.08 1.1 1.14 1.09 1.14 2.88v7.18h-48.11v-3.98q0-1.21.5-2.54.51-1.34 1.63-2.4l21.29-21.34q2.67-2.72 4.78-5.19 2.11-2.48 3.51-4.9 1.41-2.43 2.16-4.92.75-2.5.75-5.27 0-2.52-.72-4.43-.73-1.92-2.06-3.23-1.34-1.31-3.21-1.96-1.86-.66-4.19-.66-2.13 0-3.95.61-1.82.6-3.23 1.69-1.41 1.1-2.38 2.55-.97 1.46-1.45 3.2-.83 2.23-2.13 2.96-1.31.73-3.79.34l-6.3-1.12q.73-5.04 2.81-8.85 2.09-3.8 5.21-6.35 3.13-2.55 7.18-3.83 4.05-1.29 8.71-1.29 4.85 0 8.87 1.43 4.03 1.43 6.89 4.05t4.46 6.31q1.6 3.68 1.6 8.19 0 3.88-1.14 7.18t-3.05 6.31q-1.92 3-4.49 5.82-2.57 2.81-5.38 5.72l-15.81 16.15q2.28-.68 4.53-1.04 2.26-.37 4.29-.37m54.81 2.58q2.96 0 5.19-.85t3.76-2.36q1.53-1.5 2.3-3.58.78-2.09.78-4.52 0-5.77-3.2-8.73-3.2-2.95-8.83-2.95t-8.83 2.95q-3.2 2.96-3.2 8.73 0 2.43.78 4.52.77 2.08 2.3 3.58 1.53 1.51 3.76 2.36t5.19.85m0-53.31q-2.67 0-4.61.83-1.94.82-3.22 2.21-1.29 1.38-1.9 3.17-.6 1.8-.6 3.78 0 2.09.51 4.05.51 1.97 1.72 3.5 1.21 1.52 3.2 2.45 1.99.92 4.9.92t4.9-.92q1.99-.93 3.2-2.45 1.21-1.53 1.72-3.5.51-1.96.51-4.05 0-1.98-.63-3.78-.63-1.79-1.89-3.17-1.26-1.39-3.2-2.21-1.94-.83-4.61-.83m11.83 25.32q6.41 2.09 9.46 6.38 3.06 4.29 3.06 10.5 0 4.65-1.77 8.44-1.77 3.78-4.98 6.45-3.2 2.67-7.68 4.12-4.49 1.46-9.92 1.46t-9.92-1.46q-4.49-1.45-7.69-4.12t-4.97-6.45q-1.77-3.79-1.77-8.44 0-6.21 3.06-10.5 3.05-4.29 9.46-6.38-5.1-2.13-7.64-6.06-2.55-3.93-2.55-9.46 0-3.98 1.62-7.42 1.63-3.44 4.54-5.99t6.96-3.98 8.9-1.43 8.9 1.43 6.96 3.98 4.53 5.99q1.63 3.44 1.63 7.42 0 5.53-2.55 9.46-2.54 3.93-7.64 6.06m90.89 20.52-6.35 6.25-16.44-16.44-16.59 16.54-6.35-6.26 16.58-16.63-15.81-15.81 6.31-6.31 15.81 15.81 15.71-15.71 6.4 6.3-15.76 15.77zm42-10.38h21.34v-22.94q0-3.25.44-7.18zm31.77 0h8.83v6.93q0 .97-.63 1.68-.63.7-1.8.7h-6.4v17.12h-10.43v-17.12h-29.58q-1.21 0-2.14-.75-.92-.75-1.16-1.87l-1.26-6.06 33.22-44.38h11.35zm48.89 17.46h12.61v8.97h-38.8v-8.97h14.21v-40.89q0-2.42.14-4.99l-10.08 8.44q-.88.67-1.73.84-.84.17-1.6.03-.75-.15-1.33-.51t-.87-.8l-3.79-5.19 21.39-18.19h9.85zm48.26-2.19h17.99q1.94 0 3.08 1.1 1.14 1.09 1.14 2.88v7.18h-48.11v-3.98q0-1.21.51-2.54.51-1.34 1.62-2.4l21.29-21.34q2.67-2.72 4.78-5.19 2.11-2.48 3.52-4.9 1.4-2.43 2.15-4.92.76-2.5.76-5.27 0-2.52-.73-4.43-.73-1.92-2.06-3.23-1.34-1.31-3.2-1.96-1.87-.66-4.2-.66-2.13 0-3.95.61-1.82.6-3.23 1.69-1.4 1.1-2.37 2.55-.97 1.46-1.46 3.2-.82 2.23-2.13 2.96t-3.79.34l-6.3-1.12q.73-5.04 2.81-8.85 2.09-3.8 5.22-6.35 3.12-2.55 7.17-3.83 4.05-1.29 8.71-1.29 4.85 0 8.88 1.43 4.02 1.43 6.88 4.05t4.46 6.31q1.61 3.68 1.61 8.19 0 3.88-1.14 7.18t-3.06 6.31q-1.92 3-4.49 5.82-2.57 2.81-5.38 5.72l-15.81 16.15q2.28-.68 4.53-1.04 2.26-.37 4.3-.37"/></svg>