<svg xmlns="http://www.w3.org/2000/svg" width="256" height="256" viewBox="0 0 256 256"><rect width="100%" height="100%" fill="#644A40"/><path fill="#FFDFB5" d="M61.005 136.38h6.3q.68 0 1.08.38t.4 1.01v2.52h-16.86v-1.39q0-.43.18-.9.18-.46.57-.84l7.46-7.48q.94-.95 1.68-1.82.73-.86 1.23-1.71.49-.85.75-1.73.27-.88.27-1.84 0-.89-.26-1.56-.25-.67-.72-1.13t-1.12-.69q-.66-.23-1.47-.23-.75 0-1.39.21-.64.22-1.13.6t-.83.89-.51 1.12q-.29.79-.75 1.04-.46.26-1.33.12l-2.21-.39q.26-1.77.99-3.1.73-1.34 1.83-2.23 1.09-.89 2.51-1.34t3.06-.45q1.7 0 3.11.5t2.41 1.42q1 .91 1.56 2.21.57 1.29.57 2.87 0 1.36-.4 2.52-.4 1.15-1.07 2.21-.68 1.05-1.58 2.04-.9.98-1.88 2l-5.55 5.66q.8-.24 1.59-.36.79-.13 1.51-.13m17.12-16.86-.87 5.11q.82-.17 1.56-.24.75-.08 1.45-.08 1.94 0 3.42.58 1.47.58 2.48 1.6 1 1.02 1.51 2.38.51 1.37.51 2.95 0 1.96-.69 3.57-.69 1.62-1.91 2.77-1.22 1.14-2.9 1.77-1.67.63-3.65.63-1.15 0-2.19-.24-1.04-.23-1.94-.63-.91-.4-1.69-.92-.77-.52-1.38-1.1l1.29-1.78q.41-.58 1.07-.58.42 0 .87.27.44.27 1.01.6.57.32 1.34.59t1.86.27q1.16 0 2.04-.37.89-.38 1.47-1.05.59-.67.89-1.59.29-.93.29-2.02 0-2.01-1.16-3.14t-3.44-1.13q-1.75 0-3.59.65l-2.62-.75 2.04-11.93h12.14v1.78q0 .9-.56 1.46-.56.57-1.9.57zm28.11-3.81-7.29 8.92-.85 1.06q.72-.36 1.54-.56.82-.19 1.78-.19 1.39 0 2.71.46t2.32 1.38q1 .93 1.61 2.31.62 1.37.62 3.21 0 1.72-.63 3.22-.63 1.51-1.77 2.63t-2.75 1.77q-1.6.64-3.54.64-1.97 0-3.54-.63-1.56-.63-2.67-1.76-1.1-1.13-1.69-2.72-.58-1.59-.58-3.52 0-1.74.7-3.57.71-1.82 2.19-3.8l5.86-7.87q.31-.4.89-.69.59-.29 1.35-.29zm-6.34 21.42q1.01 0 1.85-.34t1.44-.95q.61-.62.95-1.44.34-.83.34-1.79 0-1.06-.33-1.9-.32-.84-.91-1.43-.6-.58-1.43-.89-.84-.31-1.84-.31t-1.82.34q-.81.34-1.39.95-.58.6-.9 1.43-.33.82-.33 1.77 0 1.02.29 1.86.28.84.83 1.44.55.59 1.37.93.81.33 1.88.33m36.04-2.47-2.22 2.2-5.77-5.77-5.81 5.8-2.23-2.19 5.82-5.83-5.55-5.55 2.21-2.21 5.55 5.55 5.5-5.51 2.25 2.21-5.53 5.52zm20.47 1.72h6.31q.68 0 1.08.38t.4 1.01v2.52h-16.87v-1.39q0-.43.18-.9.18-.46.57-.84l7.46-7.48q.94-.95 1.68-1.82.74-.86 1.23-1.71t.76-1.73q.26-.88.26-1.84 0-.89-.25-1.56-.26-.67-.73-1.13-.46-.46-1.12-.69-.65-.23-1.47-.23-.75 0-1.38.21-.64.22-1.13.6-.5.38-.84.89t-.51 1.12q-.29.79-.75 1.04-.45.26-1.32.12l-2.21-.39q.25-1.77.98-3.1.74-1.34 1.83-2.23 1.1-.89 2.52-1.34t3.05-.45q1.7 0 3.11.5t2.41 1.42q1.01.91 1.57 2.21.56 1.29.56 2.87 0 1.36-.4 2.52-.4 1.15-1.07 2.21-.67 1.05-1.57 2.04-.9.98-1.89 2l-5.54 5.66q.8-.24 1.59-.36.79-.13 1.5-.13m17.12-16.86-.87 5.11q.82-.17 1.57-.24.75-.08 1.44-.08 1.94 0 3.42.58t2.48 1.6q1.01 1.02 1.51 2.38.51 1.37.51 2.95 0 1.96-.68 3.57-.69 1.62-1.92 2.77-1.22 1.14-2.89 1.77-1.68.63-3.65.63-1.16 0-2.19-.24-1.04-.23-1.95-.63t-1.68-.92q-.78-.52-1.39-1.1l1.29-1.78q.41-.58 1.07-.58.43 0 .87.27t1.01.6q.57.32 1.35.59.77.27 1.86.27 1.15 0 2.04-.37.88-.38 1.47-1.05.58-.67.88-1.59.3-.93.3-2.02 0-2.01-1.17-3.14-1.16-1.13-3.44-1.13-1.75 0-3.58.65l-2.62-.75 2.04-11.93h12.14v1.78q0 .9-.57 1.46-.56.57-1.9.57zm28.12-3.81-7.29 8.92-.85 1.06q.71-.36 1.53-.56.83-.19 1.78-.19 1.4 0 2.71.46 1.32.46 2.32 1.38 1.01.93 1.62 2.31.61 1.37.61 3.21 0 1.72-.63 3.22-.63 1.51-1.77 2.63t-2.74 1.77q-1.61.64-3.55.64-1.97 0-3.53-.63-1.57-.63-2.67-1.76-1.11-1.13-1.69-2.72-.59-1.59-.59-3.52 0-1.74.71-3.57.7-1.82 2.18-3.8l5.87-7.87q.3-.4.89-.69.58-.29 1.35-.29zm-6.34 21.42q1 0 1.84-.34t1.45-.95q.6-.62.94-1.44.34-.83.34-1.79 0-1.06-.32-1.9-.33-.84-.92-1.43-.59-.58-1.43-.89-.83-.31-1.83-.31-1.01 0-1.82.34-.82.34-1.4.95-.58.6-.9 1.43-.32.82-.32 1.77 0 1.02.28 1.86t.83 1.44q.56.59 1.37.93.82.33 1.89.33"/></svg>