<svg xmlns="http://www.w3.org/2000/svg" width="412" height="275" viewBox="0 0 412 275"><rect width="100%" height="100%" fill="#644A40"/><path fill="#FFDFB5" d="M89.89 142.39h12.09v-13.01q0-1.84.25-4.06zm18.01 0h5v3.94q0 .54-.36.94-.35.4-1.01.4h-3.63v9.71h-5.92v-9.71H85.21q-.69 0-1.21-.42-.52-.43-.66-1.06l-.72-3.44 18.84-25.16h6.44zm27.72 9.9h7.15v5.09h-22v-5.09h8.05v-23.18q0-1.37.09-2.83l-5.72 4.78q-.5.39-.98.48-.48.1-.91.02-.42-.09-.75-.29-.33-.21-.5-.46l-2.14-2.94 12.12-10.31h5.59zm27.36-1.24h10.2q1.1 0 1.75.62.64.62.64 1.64v4.07h-27.28v-2.25q0-.69.29-1.45t.92-1.36l12.08-12.1q1.51-1.54 2.71-2.94 1.19-1.4 1.99-2.78.8-1.37 1.22-2.79.43-1.42.43-2.99 0-1.43-.41-2.51-.42-1.09-1.17-1.83-.76-.74-1.82-1.11t-2.38-.37q-1.21 0-2.24.34t-1.83.96q-.79.62-1.34 1.45-.55.82-.83 1.81-.47 1.26-1.21 1.68-.74.41-2.14.19l-3.58-.63q.41-2.86 1.6-5.02 1.18-2.16 2.95-3.6 1.78-1.45 4.07-2.18 2.3-.72 4.94-.72 2.75 0 5.03.81t3.91 2.29q1.62 1.49 2.53 3.58.9 2.09.9 4.64 0 2.2-.64 4.08-.65 1.87-1.73 3.57-1.09 1.71-2.55 3.3t-3.05 3.24l-8.97 9.16q1.3-.38 2.58-.59 1.27-.21 2.43-.21m57.42-2.77-3.6 3.55-9.33-9.33-9.4 9.38-3.6-3.55 9.4-9.43-8.96-8.97 3.57-3.57 8.97 8.97 8.91-8.91 3.63 3.57-8.94 8.94zm33.11 2.77h10.2q1.1 0 1.75.62.64.62.64 1.64v4.07h-27.28v-2.25q0-.69.29-1.45t.92-1.36l12.08-12.1q1.51-1.54 2.71-2.94 1.19-1.4 1.99-2.78.8-1.37 1.22-2.79.43-1.42.43-2.99 0-1.43-.41-2.51-.42-1.09-1.17-1.83-.76-.74-1.82-1.11t-2.38-.37q-1.21 0-2.24.34t-1.83.96q-.79.62-1.34 1.45-.55.82-.83 1.81-.47 1.26-1.21 1.68-.74.41-2.14.19l-3.58-.63q.41-2.86 1.6-5.02 1.18-2.16 2.95-3.6 1.78-1.45 4.07-2.18 2.3-.72 4.94-.72 2.75 0 5.03.81t3.91 2.29q1.62 1.49 2.53 3.58.9 2.09.9 4.64 0 2.2-.64 4.08-.65 1.87-1.73 3.57-1.09 1.71-2.55 3.3t-3.05 3.24l-8.97 9.16q1.3-.38 2.58-.59 1.27-.21 2.43-.21m17.68-33.44h27.47v2.95q0 1.32-.27 2.13-.28.81-.55 1.36l-15.07 31.02q-.47.96-1.32 1.64-.85.67-2.28.67h-4.93l15.38-30.39q.52-.93 1.03-1.72.51-.78 1.14-1.49h-19.03q-.63 0-1.1-.47t-.47-1.1zm41.91 6.17-1.4 8.27q1.32-.27 2.53-.4 1.21-.12 2.34-.12 3.13 0 5.52.94 2.4.93 4.02 2.58t2.45 3.86q.82 2.22.82 4.77 0 3.17-1.11 5.78-1.12 2.61-3.1 4.47t-4.68 2.87q-2.71 1.02-5.9 1.02-1.87 0-3.55-.38-1.68-.39-3.15-1.04-1.47-.64-2.72-1.48t-2.24-1.78l2.09-2.88q.66-.94 1.73-.94.69 0 1.4.44.72.44 1.64.96.92.53 2.17.97t3.01.44q1.87 0 3.3-.61 1.43-.6 2.38-1.69.95-1.08 1.43-2.58t.48-3.26q0-3.25-1.88-5.08-1.89-1.83-5.57-1.83-2.83 0-5.8 1.05l-4.24-1.21 3.3-19.31h19.64v2.89q0 1.46-.91 2.37t-3.08.91z"/></svg>