<?xml version="1.0" standalone="no"?>
<!DOCTYPE svg PUBLIC "-//W3C//DTD SVG 20010904//EN"
 "http://www.w3.org/TR/2001/REC-SVG-20010904/DTD/svg10.dtd">
<svg version="1.0" xmlns="http://www.w3.org/2000/svg"
 width="320.000000pt" height="320.000000pt" viewBox="0 0 320.000000 320.000000"
 preserveAspectRatio="xMidYMid meet">

<g transform="translate(0.000000,320.000000) scale(0.100000,-0.100000)"
fill="#202020" stroke="none">
<path d="M1380 3017 c-201 -68 -350 -259 -453 -578 l-33 -101 -120 -35 c-65
-19 -139 -44 -164 -56 l-45 -22 -28 -230 c-15 -126 -64 -509 -108 -850 -45
-341 -82 -633 -83 -649 l-1 -30 805 -152 c442 -84 806 -152 807 -150 4 4 112
2530 108 2534 -1 1 -21 -2 -44 -7 l-42 -9 -35 70 c-62 123 -161 198 -261 198
-15 0 -35 12 -50 30 -14 17 -38 37 -54 45 -40 21 -124 18 -199 -8z m154 -96
c3 -4 -19 -25 -50 -46 -100 -69 -192 -214 -228 -362 l-17 -68 -100 -34 c-55
-18 -103 -30 -107 -26 -10 9 33 127 83 230 73 149 181 264 280 299 45 16 131
21 139 7z m96 -128 c6 -27 14 -82 17 -124 5 -73 5 -78 -18 -93 -30 -19 -248
-90 -256 -83 -15 16 69 196 119 253 33 37 104 94 118 94 4 0 13 -21 20 -47z
m154 16 c33 -28 96 -137 96 -165 0 -15 -14 -21 -83 -29 l-57 -7 0 53 c0 48
-10 110 -26 162 -9 28 31 21 70 -14z m-239 -770 c97 -17 94 -6 56 -181 -18
-84 -35 -156 -37 -159 -2 -3 -34 5 -71 17 -79 27 -195 32 -247 10 -49 -20 -76
-61 -76 -112 0 -55 31 -91 144 -173 105 -76 180 -157 214 -228 21 -47 27 -77
30 -154 6 -146 -28 -247 -116 -341 -136 -146 -366 -166 -582 -52 -36 19 -83
50 -104 68 l-39 34 33 118 c18 66 35 122 37 127 2 4 23 -6 46 -22 111 -76 215
-107 276 -81 40 16 65 70 56 118 -11 59 -34 89 -128 167 -151 126 -190 194
-191 335 -1 225 122 404 329 479 109 39 250 51 370 30z"/>
<path d="M2100 2658 c1 -13 -23 -577 -52 -1255 -28 -678 -50 -1234 -47 -1237
4 -4 849 170 855 177 3 3 -304 2149 -308 2152 -2 2 -61 7 -132 13 l-128 10
-82 81 c-45 45 -87 81 -94 81 -6 0 -12 -10 -12 -22z"/>
</g>
</svg>
